<svg xmlns="http://www.w3.org/2000/svg" width="200.01" height="200.01" viewBox="0 0 200.01 200.01"><g transform="translate(-679.68 -138.22)"><circle cx="99.96" cy="99.96" r="99.96" transform="translate(679.77 138.22)" fill="#0c0c0c"/><path d="M874.64,426.59c-3.48-3.48-11.85-8.73-16-10.69-4.79-2.3-6.55-2.26-9.94.19-2.82,2-4.65,3.93-7.89,3.22s-9.66-5.55-15.87-11.74S813.91,395,813.22,391.71s1.21-5.08,3.23-7.9c2.44-3.39,2.51-5.15.19-9.94-2-4.15-7.19-12.5-10.7-16s-4.27-2.73-6.19-2a35.8,35.8,0,0,0-5.67,3c-3.48,2.33-5.43,4.27-6.8,7.19s-2.92,8.34,5.05,22.53a125.691,125.691,0,0,0,22.1,29.47h0A125.881,125.881,0,0,0,844,440.2c14.18,8,19.61,6.41,22.53,5.05s4.86-3.29,7.18-6.8a35.33,35.33,0,0,0,3-5.67C877.37,430.86,878.15,430.08,874.64,426.59Z" transform="translate(-52 -162.63)" fill="#a26a28"/><path d="M831.73,300.86a100,100,0,1,0,99.95,99.972A100,100,0,0,0,831.73,300.86Zm0,186.62a86.67,86.67,0,1,1,86.67-86.67,86.67,86.67,0,0,1-86.67,86.67Z" transform="translate(-52 -162.63)" opacity="0.1"/></g></svg>