<svg xmlns="http://www.w3.org/2000/svg" width="201.27" height="200.01" viewBox="0 0 201.27 200.01"><g transform="translate(-448.77 -290.05)"><circle cx="99.96" cy="99.96" r="99.96" transform="translate(450.12 290.05)" fill="#0c0c0c"/><path d="M658.93,522.44,629,552.89a.54.54,0,0,0,0,.78L650,576a3.613,3.613,0,0,1-5.11,5.11L624,558.86a.57.57,0,0,0-.8,0L618.11,564a22.37,22.37,0,0,1-16,6.73,22.86,22.86,0,0,1-16.28-6.92l-4.89-5a.57.57,0,0,0-.8,0l-20.84,22.2a3.613,3.613,0,0,1-5.11-5.11l20.92-22.28a.6.6,0,0,0,0-.78l-29.93-30.45a.55.55,0,0,0-.94.39v60.93a8.92,8.92,0,0,0,8.89,8.89H651a8.92,8.92,0,0,0,8.89-8.89V522.83a.55.55,0,0,0-.96-.39Z" transform="translate(-52 -162.63)" fill="#a26a28"/><path d="M602.08,563.5A15.14,15.14,0,0,0,613,559l43.59-44.37a8.7,8.7,0,0,0-5.5-2H553.15a8.64,8.64,0,0,0-5.5,2L591.25,559A15.08,15.08,0,0,0,602.08,563.5Z" transform="translate(-52 -162.63)" fill="#a26a28"/><path d="M600.82,452.69a100,100,0,1,0,99.95,99.972A100,100,0,0,0,600.82,452.69Zm0,186.62a86.67,86.67,0,1,1,86.67-86.67,86.67,86.67,0,0,1-86.67,86.67Z" transform="translate(-52 -162.63)" opacity="0.1"/></g></svg>